<?xml version="1.0" standalone="no"?>
<!DOCTYPE svg PUBLIC "-//W3C//DTD SVG 1.1//EN" "http://www.w3.org/Graphics/SVG/1.1/DTD/svg11.dtd">
<svg t="1698741751482" class="icon" viewBox="0 0 1024 1024" version="1.1"
    xmlns="http://www.w3.org/2000/svg" p-id="5196" xmlns:xlink="http://www.w3.org/1999/xlink"
    width="200" height="200">
    <path
        d="M385.826133 834.3552A196.7104 196.7104 0 0 1 512 788.667733c47.189333 0 91.477333 16.759467 126.173867 45.687467l87.995733-50.961067a198.826667 198.826667 0 0 1-2.952533-34.2528c0-85.504 54.203733-158.3616 130.116266-185.873066v-102.536534a197.6832 197.6832 0 0 1-130.116266-185.873066c0-11.588267 1.006933-23.04 2.952533-34.2528l-87.995733-50.961067A196.7104 196.7104 0 0 1 512 235.332267c-47.189333 0-91.477333-16.759467-126.173867-45.687467l-87.995733 50.961067c1.9456 11.2128 2.952533 22.664533 2.952533 34.2528 0 85.504-54.203733 158.3616-130.116266 185.873066v102.536534a197.6832 197.6832 0 0 1 130.116266 185.873066c0 11.588267-1.006933 23.04-2.952533 34.2528l87.995733 50.961067z m-170.837333-20.036267a129.024 129.024 0 0 0 17.527467-65.1776c0-71.441067-57.7536-129.348267-128.989867-129.348266H102.4V404.206933h1.1264c71.236267 0 128.989867-57.9072 128.989867-129.365333a129.024 129.024 0 0 0-17.544534-65.160533L400.264533 102.4A128.8704 128.8704 0 0 0 512 167.0656 128.8704 128.8704 0 0 0 623.735467 102.4l185.2928 107.281067a129.024 129.024 0 0 0-17.544534 65.1776c0 71.441067 57.7536 129.348267 128.989867 129.348266H921.6v215.586134h-1.1264c-71.236267 0-128.989867 57.9072-128.989867 129.365333a129.024 129.024 0 0 0 17.544534 65.160533L623.735467 921.6A128.8704 128.8704 0 0 0 512 856.9344 128.8704 128.8704 0 0 0 400.264533 921.6l-185.2928-107.281067z"
        fill="#2B2B2B" p-id="5197"></path>
    <path
        d="M512 594.6368a82.6368 82.6368 0 1 0 0-165.2736 82.6368 82.6368 0 0 0 0 165.2736z m0 68.266667a150.903467 150.903467 0 1 1 0-301.806934 150.903467 150.903467 0 0 1 0 301.806934z"
        fill="#D5AC86" p-id="5198"></path>
</svg>